<svg id="Layer_1" viewBox="0 0 24 24" xmlns="http://www.w3.org/2000/svg" data-name="Layer 1"><path d="m21.97 3.757c-.082-.332-.329-.598-.653-.706-.129-.043-3.225-1.051-9.316-1.051s-9.189 1.008-9.317 1.051c-.324.108-.571.375-.654.706-.042.168-1.03 4.167-1.03 8.243s.988 8.074 1.03 8.243c.083.332.33.598.654.706.129.043 3.224 1.051 9.316 1.051s9.188-1.008 9.316-1.051c.324-.108.571-.375.653-.706.042-.168 1.03-4.167 1.03-8.243s-.988-8.074-1.03-8.243zm-14.238 16.051c.451-1.224 1.146-1.519 1.739-1.611 1.663-.261 3.389-.261 5.058 0 .592.093 1.287.388 1.738 1.612-1.187.112-2.608.192-4.268.192s-3.08-.079-4.268-.192zm10.55-.248c-.717-2.388-2.234-3.15-3.444-3.339-1.873-.293-3.811-.293-5.676 0-1.21.189-2.727.95-3.444 3.339-.849-.132-1.478-.268-1.877-.366-.264-1.217-.841-4.221-.841-7.194s.578-5.975.842-7.194c1.081-.266 3.816-.806 8.158-.806s7.079.541 8.158.806c.264 1.217.842 4.221.842 7.194s-.578 5.975-.842 7.194c-.399.098-1.028.234-1.876.366zm-6.282-13.56c-2.691 0-4 1.309-4 4s1.309 4 4 4 4-1.309 4-4-1.309-4-4-4zm0 6c-1.589 0-2-.411-2-2s.411-2 2-2 2 .411 2 2-.411 2-2 2z"/></svg>