<svg id="Layer_1" viewBox="0 0 24 24" xmlns="http://www.w3.org/2000/svg" data-name="Layer 1"><path d="m21.943 5.801c-.099-.277-.314-.498-.59-.603-.096-.036-2.298-.835-6.554-1.104-.115-1.319-.261-2.017-.269-2.057-.069-.315-.286-.578-.583-.706-.079-.034-.804-.331-1.947-.331s-1.868.297-1.947.331c-.297.128-.514.391-.583.706-.008.04-.154.738-.269 2.057-4.256.269-6.458 1.068-6.554 1.104-.275.104-.491.325-.59.603-.043.122-1.057 3.048-1.057 7.699s1.014 7.577 1.057 7.699c.099.277.314.498.59.603.13.049 3.241 1.198 9.354 1.198s9.224-1.149 9.354-1.198c.275-.104.491-.325.59-.603.043-.122 1.057-3.048 1.057-7.699s-1.014-7.577-1.057-7.699zm-10.616-2.749c.363-.059.984-.057 1.346 0 .06.426.136 1.08.191 1.957-.28-.006-.568-.009-.864-.009s-.584.003-.864.009c.056-.877.132-1.531.191-1.957zm8.868 17.02c-1.023.291-3.771.929-8.195.929s-7.175-.639-8.195-.929c-.263-.951-.805-3.31-.805-6.571s.542-5.62.805-6.571c.777-.221 2.557-.641 5.297-.83.008.527.5.989 1.025.942 1.178-.049 2.568-.049 3.746 0 .531.034 1.016-.408 1.025-.942 2.742.189 4.522.608 5.297.83.263.95.805 3.31.805 6.571s-.542 5.62-.805 6.571zm-8.189-6.071c1.868-.012 2.96-1.098 2.995-3.018-.032-1.828-1.18-2.972-3.007-2.982-1.843.011-2.962 1.126-2.995 2.982v.036c.034 1.883 1.126 2.97 3.007 2.981zm-.012-4c.739.005.994.261 1.007.981-.015.795-.231 1.014-.995 1.019-.761-.005-.989-.229-1.007-1 .018-.762.255-.995.995-1zm4.946 7.66c.188.52-.081 1.093-.601 1.28-.506.187-1.093-.076-1.28-.601-.24-.666-.649-1.12-1.067-1.185-1.312-.207-2.671-.207-3.985 0-.417.064-.826.519-1.066 1.185-.188.521-.762.789-1.28.601-.52-.188-.788-.761-.601-1.28.496-1.373 1.482-2.301 2.639-2.481 1.518-.236 3.086-.236 4.604 0 1.155.181 2.143 1.108 2.639 2.481z"/></svg>